<svg xmlns="http://www.w3.org/2000/svg" xml:space="preserve" width="655.359" height="655.359"
     style="shape-rendering:geometricPrecision;text-rendering:geometricPrecision;image-rendering:optimizeQuality;fill-rule:evenodd;clip-rule:evenodd"
     viewBox="0 0 6.827 6.827"><defs><style>.fil0{fill:none}</style></defs>
    <g id="Layer_x0020_1"><g id="_486581072"><path id="_486581456" class="fil0" d="M0 0h6.827v6.827H0z"/><path
            id="_486581144" class="fil0" d="M.853.853h5.12v5.12H.853z"/></g>
        <path d="M4.702 1.386a1.772 1.772 0 0 0-1.29-.533c-.503 0-.934.18-1.287.533a1.726 1.726 0 0 0-.533 1.29c0 .337.081.64.239.912l.034.051 1.512 2.334L4.983 3.61a1.78 1.78 0 0 0 .251-.933c0-.507-.179-.937-.532-1.29z"
              style="fill:#FF0000"/>
        <path d="M3.411 1.859a.808.808 0 0 0-.618.255.839.839 0 0 0-.255.618c0 .243.085.447.255.622a.84.84 0 0 0 .618.255.856.856 0 0 0 .622-.255.856.856 0 0 0 .256-.622.84.84 0 0 0-.256-.618.822.822 0 0 0-.622-.255z"
              style="fill:#bdbdbd"/></g></svg>
