<?xml version="1.0" encoding="iso-8859-1"?>
<!-- Generator: Adobe Illustrator 19.0.1, SVG Export Plug-In . SVG Version: 6.00 Build 0)  -->
<svg version="1.1" xmlns="http://www.w3.org/2000/svg" xmlns:xlink="http://www.w3.org/1999/xlink" x="0px" y="0px"
	 viewBox="0 0 128 128" style="enable-background:new 0 0 128 128;" xml:space="preserve">
<g id="_x31_1">
	<g id="pin_10_">
		<path style="fill:#67C4F3;" d="M66.441,4.882c-25.941,0-46.971,21.03-46.971,46.971C19.47,95.71,64,126.498,64,126.498
			s46.971-32.875,46.971-78.306C110.971,22.251,92.383,4.882,66.441,4.882z M65.221,85.5c-20.604,0-37.307-16.703-37.307-37.308
			c0-20.603,16.703-37.307,37.307-37.307c20.604,0,37.306,16.704,37.306,37.307C102.527,68.796,85.824,85.5,65.221,85.5z"/>
		<path style="fill:#53B2D3;" d="M64,126.498c0,0,46.971-32.875,46.971-78.306c0-25.941-19.485-44.454-46.971-43.247l0,7.161
			c20.604,0,36.086,15.483,36.086,36.087c0,20.604-15.482,36.087-36.086,36.087V126.498z"/>
		<path style="fill:#FFDB4D;" d="M64.006,12.181c-19.895,0-36.006,16.124-36.006,36.006c0,19.895,16.111,36.006,36.006,36.006
			c19.883,0,36.006-16.111,36.006-36.006C100.012,28.305,83.888,12.181,64.006,12.181z M70.804,62.309l-4.028,4.26
			c-0.403,0.439-0.964,0.696-1.55,0.696c-0.598,0-1.16-0.256-1.574-0.708l-3.93-4.101l-0.073-0.122
			c-0.232-0.342-0.354-0.745-0.354-1.172c0-0.671,0.342-1.318,0.952-1.745c1.477-0.964,3.21-1.452,4.955-1.452
			c1.745,0,3.515,0.488,5.053,1.501c0.549,0.378,0.891,1.025,0.891,1.697C71.146,61.577,71.024,61.98,70.804,62.309z M78.75,52.911
			l-3.344,3.442c-0.342,0.232-0.745,0.354-1.16,0.354c-0.452,0-0.903-0.146-1.318-0.452c-2.209-1.745-4.87-2.661-7.702-2.661
			c-2.844,0-5.505,0.915-7.763,2.685c-0.366,0.281-0.818,0.415-1.269,0.415c-0.403,0-0.818-0.11-1.16-0.342l-3.21-3.271
			c0,0-0.525-0.964-0.525-1.404c0-0.61,0.256-1.196,0.793-1.648c1.806-1.477,3.845-2.636,6.03-3.43
			c2.27-0.818,4.687-1.233,7.104-1.233c2.405,0,4.821,0.415,7.091,1.233c2.185,0.793,4.223,1.953,6.091,3.491
			c0.476,0.403,0.745,0.976,0.745,1.587C79.153,52.118,79.006,52.557,78.75,52.911z M86.561,43.635l-2.942,3.088l-0.134,0.073
			c-0.342,0.244-0.745,0.391-1.172,0.391c-0.452,0-0.928-0.159-1.379-0.513c-1.892-1.623-4.028-2.942-6.335-3.918
			c-2.966-1.257-6.127-1.892-9.374-1.892c-3.259,0-6.42,0.635-9.386,1.892c-2.307,0.976-4.443,2.295-6.42,3.991
			c-0.366,0.281-0.818,0.415-1.269,0.415c-0.427,0-0.854-0.122-1.208-0.366l-3.076-3.173c-0.403-0.391-0.61-0.915-0.61-1.477
			c0-0.647,0.305-1.257,0.83-1.672c2.868-2.478,6.115-4.406,9.642-5.749c3.674-1.391,7.58-2.087,11.485-2.087
			c3.918,0,7.824,0.696,11.498,2.087c3.527,1.343,6.774,3.271,9.667,5.761c0.513,0.403,0.818,1.013,0.818,1.66
			C87.196,42.707,86.976,43.232,86.561,43.635z"/>
		<path style="fill:#1E1E1E;" d="M63.983,128l-0.705-0.517c-0.475-0.348-47.47-35.325-47.47-79.291C15.808,21.618,37.427,0,64,0
			s48.192,21.618,48.192,48.192c0,45.54-47.017,78.974-47.492,79.306L63.983,128z M64,2.441c-25.227,0-45.751,20.524-45.751,45.751
			c0,39.798,39.927,72.252,45.766,76.783c5.874-4.371,45.735-35.577,45.735-76.783C109.751,22.965,89.227,2.441,64,2.441z M64,85.42
			c-20.527,0-37.227-16.7-37.227-37.228c0-20.527,16.7-37.227,37.227-37.227s37.227,16.7,37.227,37.227
			C101.227,68.72,84.527,85.42,64,85.42z M64,13.406c-19.181,0-34.786,15.605-34.786,34.786c0,19.182,15.605,34.787,34.786,34.787
			s34.786-15.605,34.786-34.787C98.786,29.011,83.181,13.406,64,13.406z"/>
	</g>
	<g id="icon_10_">
		<path style="fill:#54AE42;" d="M66.724,33.972c-3.46,0-6.919,0.612-10.164,1.839c-3.122,1.18-5.992,2.883-8.529,5.063
			c-0.469,0.363-0.739,0.908-0.739,1.475c0,0.494,0.193,0.956,0.544,1.304l2.723,1.598c0.31,0.22,0.686,0.33,1.064,0.33
			c0.401,0,0.802-0.123,1.126-0.371c1.75-1.493,3.633-1.468,5.674-2.325c2.627-1.104,5.421-1.664,8.302-1.664
			c2.88,0,5.674,0.56,8.3,1.664c2.04,0.856,3.921,2.019,5.596,3.452c0.402,0.308,0.823,0.448,1.223,0.448
			c0.376,0,0.734-0.123,1.041-0.341l0.109-0.06l2.611-2.721c0.358-0.355,0.553-0.817,0.553-1.311c0-0.567-0.269-1.113-0.721-1.461
			c-2.556-2.193-5.426-3.897-8.549-5.077C73.643,34.584,70.184,33.972,66.724,33.972L66.724,33.972z M66.726,45.186
			c-2.135,0-4.269,0.361-6.277,1.087c-1.941,0.702-3.736,1.72-5.338,3.024c-0.468,0.399-0.706,0.91-0.706,1.45
			c0,0.383,0.474,1.232,0.474,1.232l2.835,2.886c0.302,0.202,0.664,0.302,1.027,0.302c0.4,0,0.801-0.123,1.122-0.368
			c1.994-1.557,4.353-2.365,6.861-2.365c2.506,0,4.867,0.808,6.822,2.34c0.357,0.27,0.765,0.398,1.166,0.398
			c0.362,0,0.716-0.105,1.02-0.307l2.958-3.038c0.227-0.312,0.352-0.697,0.352-1.08c0-0.539-0.237-1.05-0.651-1.403
			c-1.656-1.349-3.453-2.369-5.393-3.071C70.992,45.547,68.859,45.186,66.726,45.186L66.726,45.186z M66.711,57.501
			c-1.545,0-3.079-0.787-4.387,0.059c-0.543,0.383-0.837,0.945-0.837,1.544c0,0.37,0.108,0.724,0.313,1.025l0.063,0.109l3.48,3.617
			c0.359,0.395,0.86,0.615,1.383,0.615h0.001c0.522,0,1.021-0.221,1.371-0.607l3.562-2.529c0.198-0.299,0.304-0.647,0.304-1.01
			c0-0.599-0.294-1.161-0.785-1.505C69.817,57.934,68.258,57.501,66.711,57.501L66.711,57.501z"/>
		<path style="fill:#1E1E1E;" d="M65.222,68.48c-0.936,0-1.836-0.4-2.469-1.099l-4.158-4.439c-0.322-0.468-0.518-1.109-0.518-1.775
			c0-1.088,0.533-2.089,1.461-2.747c3.429-2.228,8.008-2.186,11.383,0.018c0.916,0.644,1.442,1.654,1.442,2.73
			c0,0.65-0.188,1.279-0.545,1.819l-0.132,0.167l-4.027,4.256C67.052,68.082,66.157,68.48,65.222,68.48z M60.699,61.71l3.839,4.007
			c0.389,0.428,0.996,0.404,1.327,0.036l3.957-4.183c0.065-0.124,0.099-0.261,0.099-0.403c0-0.281-0.138-0.547-0.37-0.71
			c-2.511-1.638-6.093-1.671-8.643-0.018c-0.156,0.112-0.39,0.356-0.39,0.728c0,0.178,0.048,0.339,0.143,0.479L60.699,61.71z
			 M74.252,57.925c-0.742,0-1.453-0.242-2.056-0.7c-2.008-1.581-4.414-2.409-6.975-2.409c-2.559,0-4.981,0.838-7.003,2.424
			c-1.097,0.842-2.74,0.883-3.864,0.128l-0.191-0.16l-3.399-3.535c-0.315-0.566-0.69-1.372-0.69-1.993
			c0-0.985,0.435-1.899,1.225-2.573c1.941-1.588,4.091-2.811,6.411-3.653c4.777-1.732,10.237-1.734,15.022,0
			c2.32,0.843,4.491,2.084,6.454,3.689c0.76,0.651,1.184,1.569,1.184,2.538c0,0.691-0.223,1.381-0.63,1.942l-0.113,0.135
			l-3.541,3.613C75.542,57.733,74.908,57.925,74.252,57.925z M65.221,52.376c3.114,0,6.043,1.01,8.468,2.918
			c0.263,0.201,0.653,0.25,0.95,0.099l3.159-3.258c0.082-0.136,0.129-0.298,0.129-0.454c0-0.255-0.113-0.497-0.309-0.665
			c-1.728-1.414-3.66-2.519-5.72-3.266c-4.248-1.541-9.114-1.54-13.355,0c-2.061,0.747-3.972,1.834-5.678,3.23
			c-0.225,0.193-0.35,0.434-0.35,0.701c0.02,0.068,0.169,0.399,0.309,0.67l2.975,3.039c0.277,0.136,0.684,0.105,0.924-0.077
			C59.167,53.393,62.11,52.376,65.221,52.376z M82.314,48.402c-0.746,0-1.481-0.263-2.128-0.762
			c-1.852-1.589-3.873-2.84-6.056-3.759c-5.634-2.38-12.182-2.379-17.821-0.001c-2.212,0.933-4.206,2.173-6.095,3.793
			c-1.201,0.925-2.845,0.921-3.978,0.113l-0.167-0.143l-3.079-3.163c-0.615-0.613-0.961-1.446-0.961-2.331
			c0-1.017,0.489-2.004,1.308-2.639c2.926-2.526,6.292-4.533,9.958-5.924c7.57-2.874,16.278-2.875,23.848,0
			c3.663,1.39,7.037,3.402,10.029,5.979c0.757,0.585,1.239,1.566,1.239,2.584c0,0.884-0.349,1.72-0.984,2.353l-3.292,3.332
			C83.587,48.205,82.959,48.402,82.314,48.402z M65.221,39.645c3.423,0,6.74,0.667,9.859,1.986c2.416,1.017,4.653,2.403,6.648,4.116
			c0.301,0.229,0.719,0.296,1.055,0.052l0.079-0.052l2.822-2.954c0.195-0.195,0.287-0.411,0.287-0.646
			c0-0.265-0.131-0.53-0.342-0.695c-2.825-2.432-5.954-4.297-9.351-5.587c-7.016-2.663-15.1-2.663-22.115,0
			c-3.398,1.291-6.52,3.152-9.278,5.531c-0.277,0.217-0.412,0.483-0.412,0.751c0,0.236,0.089,0.448,0.257,0.616l2.995,3.078
			c0.283,0.154,0.705,0.128,0.953-0.064c2.005-1.72,4.271-3.129,6.685-4.147C58.481,40.313,61.798,39.645,65.221,39.645z"/>
	</g>
</g>
<g id="Layer_1">
</g>
</svg>
