<svg id="icons" xmlns="http://www.w3.org/2000/svg" viewBox="0 0 340 340"><rect x="163.566" y="213.045" width="27.213" height="62.316" style="fill:#999"/><polygon points="167.43 231.375 135.183 231.472 135.183 212.66 167.43 212.563 167.43 231.375" style="fill:#e6e6e6"/><polygon points="167.43 250.187 135.183 250.285 135.183 231.472 167.43 231.375 167.43 250.187" style="fill:#e6e6e6"/><polygon points="167.43 269.856 135.183 269.957 135.183 250.12 167.43 250.019 167.43 269.856" style="fill:#e6e6e6"/><path d="M150.224,269.91l17.206-.054V212.563l-32.247.1v8.428s10.734-.645,19.671-.32A5.223,5.223,0,0,1,159.868,226v31.669A12.572,12.572,0,0,1,150.224,269.91Z" style="fill:#999"/><path d="M203.46,243.621v26.133h-54.4a17.486,17.486,0,0,1-15.178-8.851c-10.022-17.557-15.441-43.569-18.577-57.413l-12.725-.751c3.288,28.055,14.456,54.211,21.908,69.144a23.346,23.346,0,0,0,20.9,12.908H240.51v-41.17Z" style="fill:#d8d8d8"/><path d="M115.305,203.49l-12.725-.751a168.345,168.345,0,0,0,3.5,19.451,34.035,34.035,0,0,0,14.16,2.164C118.145,216.348,116.546,208.966,115.305,203.49Z" style="fill:#b3b3b3"/><polygon points="203.46 269.754 196.044 269.754 196.044 284.791 203.46 284.791 240.51 284.791 240.51 243.621 203.46 243.621 203.46 269.754" style="fill:#999"/><polygon points="235.807 253.004 186.393 253.004 183.58 215.11 235.807 217.146 235.807 253.004" style="fill:#ccc"/><path d="M186.393,216.931s28.84,10.335,46.035,33.624l29.818-32.212-4.023-4.227a14.6,14.6,0,0,0-16.916-3.2,33.356,33.356,0,0,1-3.325,1.4c-7.521,2.714-14.306,3.116-21.762.228a44.441,44.441,0,0,1-11.279-6.554Z" style="fill:#6f6f7f"/><path d="M104.036,198.519s-1.744,17.837,16.942,17.837a217.874,217.874,0,0,1,65.415.575,16.824,16.824,0,0,0,18.371-10.479q.089-.227.177-.458s-14.066-17.362-40-25.064a60.855,60.855,0,0,0-20.7-2.461C131.946,179.153,111.907,182.776,104.036,198.519Z" style="fill:#ff8585"/><path d="M96.233,216.356H71.481V178.5H88.426A14.146,14.146,0,0,1,102,196.615Z" style="fill:#ff8585"/><path d="M56.546,230.682a49.213,49.213,0,1,0,49.213,49.212A49.212,49.212,0,0,0,56.546,230.682Zm0,80.892a31.68,31.68,0,1,1,31.68-31.68A31.68,31.68,0,0,1,56.546,311.574Z" style="fill:#6f6f7f"/><path d="M280.955,230.682a49.213,49.213,0,1,0,49.213,49.212A49.212,49.212,0,0,0,280.955,230.682Zm0,80.892a31.68,31.68,0,1,1,31.68-31.68A31.679,31.679,0,0,1,280.955,311.574Z" style="fill:#6f6f7f"/><path d="M323.892,233.983a52.693,52.693,0,0,0-94.475,41.378l25.366-5.993s2.051-18.653,24.933-21.153H297.76a21.441,21.441,0,0,0,12.864-4.287Z" style="fill:#ff8585"/><path d="M186.394,253h34.147A32.316,32.316,0,0,0,185.5,240.923Z" style="fill:#999"/><rect x="130.192" y="228.26" width="42.228" height="7.092" rx="3.546" style="fill:#999"/><rect x="130.192" y="247.169" width="42.228" height="7.092" rx="3.546" style="fill:#999"/><circle cx="196.041" cy="266.096" r="18.694" style="fill:#ccc"/><path d="M97.013,194.545s-7.068,10.73-25.532,11.414v10.4H96.233L102,196.615c.106-.364.173-.726.249-1.088Z" style="fill:#e05f5f"/><path d="M133.8,151.5h37.618a7.012,7.012,0,0,0,7.013-7.012h0a7.013,7.013,0,0,0-7.013-7.013H130.336Z" style="fill:#6f6f7f"/><path d="M264.113,10.884c-18.821,17.87-62.221,9.755-62.221,9.755V83.955a59.532,59.532,0,0,0,4.027,21.915c15.634,39.51,58.194,47.427,58.194,47.427s42.56-7.917,58.194-47.427a59.532,59.532,0,0,0,4.027-21.915V20.639S282.934,28.754,264.113,10.884Z" style="fill:#ffdc6c"/><path d="M264.113,10.884a34.638,34.638,0,0,1-10.378,6.61L201.892,69.336V83.955a61.127,61.127,0,0,0,2.283,16.759l80.156-80.156C276.655,18.885,269.41,15.914,264.113,10.884Z" style="fill:#ffedd2"/><path d="M211.449,116.954a71.955,71.955,0,0,0,7.649,10.308L320.34,26.369V21.5c-3.35.4-7.874.806-12.988.933Z" style="fill:#ffedd2"/><path d="M322.307,105.87a59.532,59.532,0,0,0,4.027-21.915V20.639s-43.4,8.115-62.221-9.755V153.3S306.673,145.38,322.307,105.87Z" style="fill:#fca742"/><path d="M201.892,54.576,234.469,22c-2.568.247-5.115.386-7.589.444L201.892,47.431Z" style="fill:#ffedd2"/><path d="M204.941,205.994a58,58,0,0,0-5.458-5.57c-4.417,3.563-10.923,7.337-17.272,5.57a83.688,83.688,0,0,0-18.645-3.255c-15.711-1.252-33.4,1.253-37.258,1.561l-.115.009a2.61,2.61,0,0,1-2.411-3.909l12.008-21.045c-11.615,1.818-25.511,6.677-31.754,19.164,0,0-1.744,17.837,16.942,17.837a217.879,217.879,0,0,1,65.416.575,16.824,16.824,0,0,0,18.37-10.479Q204.853,206.225,204.941,205.994Z" style="fill:#e05f5f"/><path d="M53.759,285.3h0a8.012,8.012,0,0,1-3.189-10.874l73.21-132.776a8.013,8.013,0,0,1,10.875-3.189h0a8.013,8.013,0,0,1,3.189,10.874L64.633,282.113A8.012,8.012,0,0,1,53.759,285.3Z" style="fill:#d8d8d8"/><path d="M310.624,243.928l13.268-9.945a53.06,53.06,0,0,0-7.267-8.212c-10.856,10.91-22.126,10.911-22.126,10.911H273.41c-15.38,0-22.085,6.991-24.68,11.047a6.174,6.174,0,0,1-5.212,2.826h-11.09l-2.365.535a51.893,51.893,0,0,0-1.563,8.955,53.036,53.036,0,0,0,.917,15.316l25.366-5.993s2.051-18.653,24.933-21.153H297.76A21.441,21.441,0,0,0,310.624,243.928Z" style="fill:#e05f5f"/><path d="M209.03,284.791l14.119-13.439a25.561,25.561,0,0,1,17.174-7.043l92.344-1.624-3.723,8.424a22.96,22.96,0,0,1-21,13.682Z" style="fill:#d8d8d8"/><path d="M235.6,273.7a11.219,11.219,0,0,1,4.135-2.326,7.187,7.187,0,0,1,2-.311l26.9-.562a1.368,1.368,0,0,1,.9,2.422l-.614.508a5.823,5.823,0,0,1-3.591,1.336l-29.057.607A.964.964,0,0,1,235.6,273.7Z" style="fill:#fff"/><path d="M275.441,273.1a11.211,11.211,0,0,1,4.136-2.325,7.1,7.1,0,0,1,2-.311l2.118-.051a1.369,1.369,0,0,1,.9,2.423l-.613.507a5.819,5.819,0,0,1-3.591,1.336l-4.276.1A.965.965,0,0,1,275.441,273.1Z" style="fill:#fff"/><path d="M135.051,254.715l32.248-.1h4.385a4,4,0,1,0,0-8h-.4v-2.95a4,4,0,0,0-8,0v2.962l-24.248.073v-3.081a4,4,0,0,0-8,0v3.093h-.7a4,4,0,0,0,0,8h4.715Z" style="fill:#494456"/><path d="M332.6,258.686l-2.819.049a53.377,53.377,0,0,0-10.823-16.052l7.337-5.5a4,4,0,0,0,.855-5.527,56.594,56.594,0,0,0-65.928-20.2l-.1-.1a18.5,18.5,0,0,0-21.571-4.035,29.46,29.46,0,0,1-2.925,1.235c-7.125,2.57-12.795,2.649-18.961.26a40.614,40.614,0,0,1-9.956-5.749c-2.389-2.8-16.84-18.729-42.006-26.084a64.394,64.394,0,0,0-21.684-2.51,82.451,82.451,0,0,0-16.93,2.652L139.01,155.5h32.4a11.013,11.013,0,1,0,0-22.025H131.007c-.059,0-.118,0-.177,0h-.494c-.114,0-.22.024-.331.033a12.134,12.134,0,0,0-2.574.454,11.924,11.924,0,0,0-7.154,5.754l-40.05,72.636H75.481V182.5H88.426a4,4,0,1,0,0-8H71.481a4,4,0,0,0-4,4v37.855a4,4,0,0,0,4,4h4.335L62.39,244.707a35.629,35.629,0,1,0,27.966,23.764,4,4,0,1,0-7.578,2.561,27.685,27.685,0,1,1-26.231-18.818c.559,0,1.118.018,1.675.051L47.06,272.508a12.013,12.013,0,0,0,21.076,11.535l20.077-36.411a45.207,45.207,0,1,1-31.666-12.95c.807,0,1.625.021,2.428.064a4,4,0,0,0,.424-7.989c-.944-.05-1.9-.075-2.852-.075A53.226,53.226,0,1,0,92.2,240.4l9.857-17.876a240.825,240.825,0,0,0,18.852,51.145,27.192,27.192,0,0,0,24.478,15.122H228.5a53.21,53.21,0,0,0,105.672-8.9,53.736,53.736,0,0,0-.769-8.969l2.926-6.624a4,4,0,0,0-3.729-5.616ZM312.484,247.5A45.472,45.472,0,0,1,321,258.89l-58.248,1.024c3.059-4.176,8.222-7.7,16.963-7.7H297.76A25.6,25.6,0,0,0,312.484,247.5Zm-34.131-31.547a48.537,48.537,0,0,1,39.888,17.268l-7.636,5.723a3.991,3.991,0,0,0-.529.4l-1.852,1.388a17.555,17.555,0,0,1-10.464,3.486H279.717c-15.9,0-23.113,9.009-26.3,15.864l-13.166.232a29.573,29.573,0,0,0-7.844,1.2c.024-.378.044-.755.076-1.132a48.128,48.128,0,0,1,1.014-6.555l.007-.035c.316-1.393.695-2.763,1.128-4.108l.01-.032a49.019,49.019,0,0,1,26.99-29.742l.037-.016A48.111,48.111,0,0,1,278.353,215.952Zm-70.922,64.839H196.039a14.695,14.695,0,1,1,14.4-17.66,4,4,0,1,0,7.838-1.6A22.445,22.445,0,0,0,216.815,257h8c-.119.895-.22,1.8-.3,2.7-.158,1.86-.219,3.737-.2,5.6a29.675,29.675,0,0,0-3.927,3.141Zm31.909-64.708a37.336,37.336,0,0,0,3.721-1.572,10.552,10.552,0,0,1,10.181.664,57.19,57.19,0,0,0-23.713,25.677c-9.953-10.67-21.682-18.012-30.187-22.44a20.9,20.9,0,0,0,7.041-6.494,44.862,44.862,0,0,0,8.391,4.36C222.678,219.34,230.483,219.278,239.34,216.083Zm-94.877-33.621a56.35,56.35,0,0,1,19,2.2,85.571,85.571,0,0,1,36.753,22.06,12.933,12.933,0,0,1-13.184,6.257l-.059-.009-.024,0c-6.5-1.041-12.786-1.729-18.732-2.16a3.972,3.972,0,0,0-.925-.118c-.105,0-.2.023-.305.031a221.251,221.251,0,0,0-44.909,1.413,13.828,13.828,0,0,1-3.52.094c-3.856-.427-6.6-1.9-8.351-4.478l11.028-20C129.072,184.032,138.124,182.815,144.463,182.462Zm18.824,45.356-24.248.073v-9.356a225.719,225.719,0,0,1,24.248-.022Zm11.14-83.326a3.015,3.015,0,0,1-3.013,3.012h-28.77a12.027,12.027,0,0,0-.53-6.025h29.3A3.016,3.016,0,0,1,174.427,144.492Zm-113.3,135.7a4.014,4.014,0,0,1-7.374-.8,3.978,3.978,0,0,1,.323-3.041L127.29,143.569a4.025,4.025,0,0,1,3.52-2.09h.015a4.015,4.015,0,0,1,3.516,5.926l-19.5,35.36-.007.012Zm66.943-10.1c-6.31-12.644-14.4-31.552-18.952-52.643a21.065,21.065,0,0,0,8.559,2.726,21.839,21.839,0,0,0,5.557-.129c1.651-.241,4.319-.59,7.808-.921V227.9h-.7a4,4,0,0,0,0,8h4.715l32.248-.1h4.385a4,4,0,0,0,0-8h-.4v-8.724q4.226.38,8.647.951l1.328,17.888a4,4,0,0,0,3.986,3.7c.1,0,.2,0,.3-.011a4,4,0,0,0,3.693-4.286L188.1,221.94C195.18,225,213.119,233.768,226.091,249H210.915a22.648,22.648,0,0,0-37.557,16.652h-2.071v-3.068a4,4,0,0,0-8,0v3.069H151.2c-6.933.044-10.206-2.595-12.3-4.933a4,4,0,0,0-5.957,5.341c1.693,1.889,6.807,7.593,17.932,7.593.123,0,.247,0,.371,0h23.4a22.7,22.7,0,0,0,4.12,7.135H145.387A19.239,19.239,0,0,1,128.067,270.1Zm97.84,4.152a21.5,21.5,0,0,1,14.486-5.94l86.084-1.515-1.192,2.7a18.972,18.972,0,0,1-17.344,11.3H219.034Zm55.049,50.858a45.023,45.023,0,0,1-44.342-36.316h9.779a35.69,35.69,0,0,0,64.489,10.538,4,4,0,1,0-6.706-4.362,27.612,27.612,0,0,1-23.22,12.607,27.91,27.91,0,0,1-26.209-18.783h53.194a26.955,26.955,0,0,0,18.18-7.073A45.26,45.26,0,0,1,280.956,325.107Z" style="fill:#494456"/><path d="M263.382,157.23h.009a3.968,3.968,0,0,0,.717.067h.01a3.957,3.957,0,0,0,.716-.067h.01c1.827-.34,44.922-8.794,61.182-49.888a63.272,63.272,0,0,0,4.308-23.386V20.639a4,4,0,0,0-4.734-3.932c-.414.077-41.625,7.521-58.733-8.724-.075-.071-.161-.121-.24-.185a2.656,2.656,0,0,0-.666-.442c-.114-.059-.226-.122-.344-.17a3.975,3.975,0,0,0-.383-.124c-.118-.034-.234-.071-.354-.1s-.266-.036-.4-.049-.24-.025-.362-.025-.265.015-.4.028-.244.021-.365.044a3.935,3.935,0,0,0-.383.1c-.12.036-.24.069-.358.116a3.99,3.99,0,0,0-.359.178c-.113.059-.226.116-.335.187a3.821,3.821,0,0,0-.323.25c-.078.064-.164.114-.238.184-17.109,16.245-58.32,8.8-58.733,8.724a4,4,0,0,0-4.734,3.932V83.956a63.272,63.272,0,0,0,4.308,23.386C218.46,148.436,261.555,156.89,263.382,157.23ZM205.892,25.3c11.539,1.518,41.15,3.823,58.221-9.191,17.071,13.014,46.682,10.71,58.221,9.19V83.956a55.312,55.312,0,0,1-3.747,20.443c-13.514,34.153-48.951,43.538-54.479,44.807-5.542-1.26-40.916-10.555-54.469-44.807a55.312,55.312,0,0,1-3.747-20.443Z" style="fill:#494456"/><circle cx="196.041" cy="266.096" r="4" style="fill:#494456"/></svg>